<svg width="2560" height="920" viewBox="0 0 2560 920" fill="none" xmlns="http://www.w3.org/2000/svg">
<path d="M479.892 99.6344V886.516" stroke="#EAEAEA"/>
<path d="M314 100V886.881" stroke="#EAEAEA"/>
<path d="M639.856 100.278V887.16" stroke="#EAEAEA"/>
<path d="M799.82 100.922V887.804" stroke="#EAEAEA"/>
<path d="M959.784 101.566V888.447" stroke="#EAEAEA"/>
<path d="M1119.75 102.21V889.091" stroke="#EAEAEA"/>
<path d="M1279.71 102.854V889.735" stroke="#EAEAEA"/>
<path d="M1439.68 103.498V890.379" stroke="#EAEAEA"/>
<path d="M1599.64 104.142V891.023" stroke="#EAEAEA"/>
<path d="M1759.6 104.786V891.667" stroke="#EAEAEA"/>
<path d="M1919.57 105.43V892.311" stroke="#EAEAEA"/>
<path d="M2060 105V891.881" stroke="#EAEAEA"/>
<path d="M2211 107V893.881" stroke="#EAEAEA"/>
<path d="M0 223.913L2560 223.913" stroke="#EAEAEA"/>
<path d="M0 372.016L2560 372.016" stroke="#EAEAEA"/>
<path d="M0 499.514L2560 499.514" stroke="#EAEAEA"/>
<path d="M0 627.012L2560 627.012" stroke="#EAEAEA"/>
<path d="M0 754.51L2560 754.51" stroke="#EAEAEA"/>
<rect x="314" y="-24" width="1897" height="249" fill="url(#paint0_linear_749_26)"/>
<rect x="2211" y="920" width="1897" height="249" transform="rotate(180 2211 920)" fill="url(#paint1_linear_749_26)"/>
<defs>
<linearGradient id="paint0_linear_749_26" x1="1351.96" y1="-24" x2="1351.96" y2="225" gradientUnits="userSpaceOnUse">
<stop stop-color="white"/>
<stop offset="1" stop-color="white" stop-opacity="0"/>
</linearGradient>
<linearGradient id="paint1_linear_749_26" x1="3248.96" y1="920" x2="3248.96" y2="1169" gradientUnits="userSpaceOnUse">
<stop stop-color="white"/>
<stop offset="1" stop-color="white" stop-opacity="0"/>
</linearGradient>
</defs>
</svg>
